<?xml version="1.0" encoding="utf-8"?>
<!-- Generator: Adobe Illustrator 19.2.1, SVG Export Plug-In . SVG Version: 6.00 Build 0)  -->
<svg version="1.1" id="Layer_1" xmlns="http://www.w3.org/2000/svg" xmlns:xlink="http://www.w3.org/1999/xlink" x="0px" y="0px"
	 viewBox="0 0 100 100" style="enable-background:new 0 0 100 100;" xml:space="preserve">
<style type="text/css">
	.st0{fill:#5382A1;}
	.st1{fill:#E76F00;}
</style>
<g>
	<path class="st0" d="M36.9,77.3c0,0-3.8,2.2,2.7,3c7.9,0.9,12,0.8,20.7-0.9c0,0,2.3,1.4,5.5,2.7C46.2,90.5,21.5,81.6,36.9,77.3"/>
	<path class="st0" d="M34.5,66.4c0,0-4.3,3.2,2.3,3.8c8.5,0.9,15.1,0.9,26.7-1.3c0,0,1.6,1.6,4.1,2.5C43.9,78.4,17.5,72,34.5,66.4"
		/>
	<path class="st1" d="M54.7,47.8c4.8,5.6-1.3,10.6-1.3,10.6S65.6,52,60,44.1c-5.3-7.4-9.3-11.1,12.5-23.7
		C72.5,20.4,38.3,29,54.7,47.8"/>
	<path class="st0" d="M80.5,85.4c0,0,2.8,2.3-3.1,4.1c-11.3,3.4-47,4.5-57,0.1c-3.6-1.6,3.1-3.7,5.2-4.2c2.2-0.5,3.4-0.4,3.4-0.4
		c-4-2.8-25.6,5.5-11,7.9C58,99.5,90.9,90.1,80.5,85.4"/>
	<path class="st0" d="M38.7,55c0,0-18.2,4.3-6.4,5.9c5,0.7,14.8,0.5,24-0.3c7.5-0.6,15.1-2,15.1-2s-2.7,1.1-4.6,2.4
		C48.4,66,12.7,63.7,23,58.8C31.7,54.6,38.7,55,38.7,55"/>
	<path class="st0" d="M71.3,73.3c18.8-9.7,10.1-19.1,4-17.9c-1.5,0.3-2.1,0.6-2.1,0.6s0.6-0.9,1.6-1.2c12-4.2,21.2,12.4-3.9,19
		C70.9,73.8,71.2,73.5,71.3,73.3"/>
	<path class="st1" d="M60,0c0,0,10.4,10.4-9.9,26.4c-16.2,12.8-3.7,20.1,0,28.5c-9.5-8.6-16.4-16.1-11.8-23.1
		C45.2,21.5,64.2,16.5,60,0"/>
	<path class="st0" d="M40.6,99.7c18,1.2,45.7-0.6,46.3-9.2c0,0-1.3,3.2-14.9,5.8c-15.4,2.9-34.3,2.6-45.6,0.7
		C26.4,97,28.7,98.9,40.6,99.7"/>
</g>
</svg>
